<svg viewBox="0 0 1225 192"
    xmlns="http://www.w3.org/2000/svg" preserveAspectRatio="none">
    <path d="M-0.463619 126.486C-0.487648 126.546 -0.5 126.609 -0.5 126.673V197C-0.5 197.276 -0.276142 197.5 0 197.5H1925.5C1925.78 197.5 1926 197.276 1926 197V87.9139C1926 87.6872 1925.85 87.4888 1925.63 87.4306L1835.13 63.3851C1834.98 63.3447 1834.81 63.3784 1834.69 63.4761L1746.07 133.512L1678.37 58.1932C1678.21 58.0126 1677.94 57.9747 1677.74 58.1033L1566.52 127.588L1464.27 63.4448C1464.04 63.3045 1463.75 63.3623 1463.59 63.5768L1390.47 165.457L1302.39 58.21C1302.23 58.0175 1301.95 57.9708 1301.74 58.1005L1207.44 115.611L1121.71 96.0996C1121.64 96.083 1121.56 96.083 1121.49 96.0998L1024.92 118.208L1009.12 92.1908C1009.05 92.0719 1008.93 91.9885 1008.79 91.9605L937.349 77.2935C937.253 77.2737 937.153 77.2827 937.062 77.3194L900.591 91.9864C900.536 92.0086 900.485 92.0405 900.441 92.0805L867.434 122.119L840.263 73.4028C840.184 73.2606 840.04 73.1659 839.878 73.1491C839.716 73.1323 839.556 73.1955 839.449 73.3185L787.777 132.785L703.21 77.3651C703 77.2269 702.719 77.2672 702.556 77.4591L664.503 122.138L615.416 63.5779L578.466 1.56761C578.363 1.39561 578.168 1.30133 577.97 1.328C577.771 1.35467 577.608 1.49714 577.555 1.69009L544.306 121.74L516.999 81.6387C516.907 81.504 516.756 81.4224 516.593 81.4202C516.43 81.4179 516.276 81.4952 516.18 81.6273L482.437 128.319L430.842 107.406C430.728 107.36 430.601 107.357 430.485 107.399L340.779 139.662L260.046 92.0197C259.822 91.8878 259.535 91.9488 259.384 92.1602L205.682 167.543L153.27 139.854L109.874 35.4706C109.809 35.3139 109.669 35.201 109.502 35.1706C109.335 35.1402 109.164 35.1966 109.048 35.3203L82.968 63.1011L45.3577 15.0301C45.2477 14.8894 45.071 14.8181 44.8942 14.8431C44.7173 14.868 44.5672 14.9854 44.5003 15.1509L-0.463619 126.486Z" stroke-linecap="round" stroke-linejoin="round"/>
</svg>
